<!-- Generated by IcoMoon.io -->
<svg version="1.1" xmlns="http://www.w3.org/2000/svg" width="32" height="32" viewBox="0 0 32 32">
<title>udemy</title>
<path fill="#ec5252" d="M31.44 17.84c-0.103-0.088-0.229-0.153-0.367-0.186l-0.006-0.001c-0.8 0.813-1.8 1.667-2.667 2.24-0.413 0.267-0.933 0.4-1.267 0.4-0.787 0-1.12-0.733-1.213-1.92-0.146-1.733-0.23-3.751-0.23-5.788 0-0.229 0.001-0.458 0.003-0.687l-0 0.035c0-3.013-0.693-5.067-2.507-5.227l-0.24-0.013c-1.107 0-1.653 0.573-2.36 2.027-0.613 1.253-1.56 3.067-3.307 6.533-1.438 2.839-2.989 5.277-4.746 7.546l0.079-0.106c-0.413 0.507-0.733 0.853-1.040 1.067-0.164 0.114-0.367 0.183-0.586 0.187h-0.001c-0.573 0-1-0.48-1.133-1.613-0.034-0.264-0.053-0.57-0.053-0.88 0-0.014 0-0.028 0-0.042v0.002c0-2.333 0.88-6.133 2.4-11.707 1.107-4.067 0.64-6.84-1.787-6.84h-0.040c-0.547 0-1 0.213-1.44 0.56-0.44 0.333-0.867 1.080-1.28 2.080-0.453 1.12-3.227 6.707-7.653 9.6-0.053 1.080 0.56 2.173 1.827 2.307 1.133 0.107 1.947-0.373 2.987-1.080l-0.213 0.973c-0.221 0.868-0.454 2.042-0.637 3.232l-0.030 0.235c-0.613 5.6 1.96 8.36 4.987 8.36 0.507 0 1.013-0.067 1.507-0.2 3.333-0.84 6.533-4.68 10.333-13.507-0.027 0.44-0.043 0.953-0.043 1.471 0 0.43 0.011 0.858 0.032 1.282l-0.002-0.060c0.253 5.067 2.24 6.573 5.067 6.573 2.133 0 4.12-1.107 5.133-2.493 0.632-0.798 1.023-1.81 1.053-2.913l0-0.007c-0.027-0.653-0.227-1.173-0.56-1.44z"></path>
</svg>
